<svg xmlns="http://www.w3.org/2000/svg" width="149" height="60" viewBox="0 0 149 60" fill="none"><g clip-path="url(#clip0_3221_6884)"><path d="M146.196 24.8157C149.349 23.9614 149.272 21.2736 146.196 20.23C143.33 19.2578 143.47 25.0944 146.196 24.8157ZM146.248 21.8741C146.152 22.0921 146.012 22.2851 145.839 22.446C145.663 22.6104 145.49 22.7641 145.309 22.907C145.137 23.0536 144.989 23.2359 144.872 23.4539C144.713 23.3824 144.618 23.3288 144.577 23.2895C144.809 22.8892 145.034 22.4996 145.251 22.1171C145.464 21.7383 145.688 21.3451 145.924 20.9448C146.078 21.0199 146.178 21.052 146.218 21.052C146.336 21.3809 146.343 21.6525 146.248 21.8705" fill="#CE2231"></path><path d="M88.6545 41.7573C88.305 41.9825 87.8671 42.2255 87.3594 42.4507C87.834 42.247 88.2645 42.0111 88.6545 41.7573Z" fill="#4C7287"></path><path d="M41.4508 26.1594C46.2487 26.1594 50.1379 29.8408 50.1379 34.5981C50.1379 39.3553 46.2451 43.2333 41.4508 43.2333C36.6565 43.2333 32.7637 39.4519 32.7637 34.5981C32.7637 29.7443 36.6565 26.1594 41.4508 26.1594ZM41.4508 41.9002C45.4429 41.9002 48.6624 38.7406 48.6624 34.6017C48.6624 30.4628 45.4429 27.4962 41.4508 27.4962C37.4586 27.4962 34.2391 30.5593 34.2391 34.6017C34.2391 38.6441 37.4586 41.9002 41.4508 41.9002Z" fill="#4E748B"></path><path d="M51.5361 26.549H52.9454V29.4155C52.9454 30.1661 52.8092 30.7523 52.8092 30.7523H52.8754C53.4458 29.2225 55.7932 26.1594 59.9878 26.1594C64.1823 26.1594 65.5253 28.6685 65.5253 32.5143V42.8438H64.1161V33.004C64.1161 30.1697 63.7481 27.4962 59.9878 27.4962C56.8345 27.4962 54.0492 29.6478 53.2139 32.6788C53.0116 33.3614 52.9454 34.112 52.9454 34.8948V42.8473H51.5361V26.5526V26.549Z" fill="#4E748B"></path><path d="M69.1867 27.8857H66.9717V26.6491H69.1867V20.094L69.6135 20.3192C70.2169 20.6373 70.5959 21.252 70.5959 21.9204V26.6491H73.7161C74.4188 26.6491 74.9891 27.2031 74.9891 27.8857H70.5959V36.8462C70.5959 41.1496 73.2451 41.7036 74.5881 41.7036C75.0554 41.7036 75.3571 41.6392 75.3571 41.6392V42.9117C75.3571 42.9117 75.0222 42.976 74.5182 42.976C72.7741 42.976 69.183 42.3577 69.183 36.9463V27.8857H69.1867Z" fill="#4E748B"></path><path d="M87.2598 41.1567C87.3554 41.1103 87.4511 41.0638 87.5394 41.0173C87.4474 41.0638 87.3554 41.1103 87.2598 41.1567Z" fill="#4C7287"></path><path d="M101.477 39.9022C101.602 39.5841 101.672 39.2302 101.672 38.8371C101.672 38.6512 101.647 38.4761 101.61 38.3081C101.683 38.8013 101.643 39.3303 101.474 39.9022" fill="#4E748B"></path><path d="M105.322 39.8449C105.322 39.8449 107.202 41.8965 110.521 41.8965C112.567 41.8965 114.381 40.8528 114.381 38.8334C114.381 34.6945 105.157 35.8704 105.157 30.5556C105.157 27.6533 107.673 26.1558 110.525 26.1558C113.947 26.1558 115.488 27.9143 115.488 27.9143L114.649 29.0223C114.649 29.0223 113.273 27.4925 110.422 27.4925C108.512 27.4925 106.632 28.3396 106.632 30.4591C106.632 34.6945 115.856 33.4221 115.856 38.8334C115.856 41.439 113.575 43.2333 110.488 43.2333C106.43 43.2333 104.417 40.885 104.417 40.885L105.322 39.8414V39.8449Z" fill="#4E748B"></path><path d="M136.192 26.5491H137.602V29.6443C137.602 30.3949 137.469 30.9811 137.469 30.9811H137.535C138.374 28.472 140.251 26.4204 142.904 26.4204C143.408 26.4204 143.875 26.5205 143.875 26.5205V27.8894C143.875 27.8894 143.474 27.8251 143.102 27.8251C140.486 27.8251 138.842 29.9767 138.106 32.3857C137.738 33.5259 137.602 34.734 137.602 35.8098V42.8474H136.192V26.5527V26.5491Z" fill="#4E748B"></path><path d="M147.021 26.5525H145.611V42.8472H147.021V26.5525Z" fill="#4E748B"></path><path d="M125.71 26.1594C130.508 26.1594 134.397 29.8408 134.397 34.5981C134.397 39.3553 130.504 43.2333 125.71 43.2333C120.915 43.2333 117.022 39.4519 117.022 34.5981C117.022 29.7443 120.915 26.1594 125.71 26.1594ZM125.71 41.9002C129.702 41.9002 132.921 38.7406 132.921 34.6017C132.921 30.4628 129.702 27.4962 125.71 27.4962C121.717 27.4962 118.498 30.5593 118.498 34.6017C118.498 38.6441 121.717 41.9002 125.71 41.9002Z" fill="#4E748B"></path><path d="M98.3018 34.1191C96.0758 33.2684 93.9233 32.5071 93.9233 30.4591C93.9233 28.5934 95.3804 27.7141 97.0324 27.5318C97.2569 27.5068 97.485 27.4925 97.7131 27.4925C100.565 27.4925 101.941 29.0258 101.941 29.0258L102.088 28.8293L102.78 27.9178C102.78 27.9178 101.238 26.1558 97.8125 26.1558C97.4408 26.1558 97.0729 26.1844 96.716 26.2344C94.3464 26.5739 92.4442 28.0358 92.4442 30.5556C92.4442 33.4078 95.1044 34.3907 97.5659 35.3307C99.4829 36.0599 101.271 36.7675 101.606 38.3044C101.643 38.4724 101.668 38.644 101.668 38.8334C101.668 39.2266 101.599 39.5804 101.473 39.8985C100.955 41.2174 99.4608 41.8965 97.8125 41.8965C95.6195 41.8965 94.0595 41.003 93.25 40.3954C92.9446 40.1666 92.7459 39.9772 92.6613 39.895C92.6613 39.895 92.6613 39.8914 92.6576 39.8914C92.6318 39.8664 92.6171 39.8521 92.6171 39.8485C92.2529 39.5197 91.9659 39.1837 91.7414 38.8942C91.5317 38.6297 91.3808 38.401 91.2741 38.2258H90.5566L90.5309 38.2401C90.4095 38.4403 90.2549 38.6726 90.0562 38.9264C89.8281 39.2194 89.5485 39.5375 89.21 39.8521V39.8449C89.21 39.8449 89.1585 39.8914 89.0775 39.9664C89.0665 39.9772 89.0444 39.995 89.0297 40.0058C89.0039 40.0272 88.9782 40.0522 88.9524 40.0737C88.8972 40.1201 88.831 40.1738 88.7574 40.2345C88.7022 40.2774 88.647 40.3203 88.5882 40.3632C88.5072 40.4239 88.4226 40.4811 88.3306 40.5455C88.2975 40.5669 88.2644 40.5884 88.2276 40.6134C88.1245 40.6813 88.0142 40.7492 87.8964 40.8171C87.7787 40.885 87.6646 40.9529 87.5395 41.0173C87.4512 41.0637 87.3555 41.1102 87.2599 41.1567L87.2415 41.1674C86.3952 41.5677 85.3024 41.9001 84.0036 41.9001C80.3426 41.9001 77.2188 39.509 76.8619 35.2914C76.8398 35.0233 76.8251 34.7517 76.8251 34.4693H90.277C90.277 34.4693 90.3432 33.9475 90.3432 33.5901C90.3432 29.6478 88.062 26.1593 83.4995 26.1593C81.0012 26.1593 78.65 27.1994 77.1231 29.1509C76.0266 30.5556 75.3496 32.4249 75.3496 34.7267C75.3496 34.8232 75.3533 34.9197 75.357 35.0162C75.5005 40.0308 79.3638 43.2333 84.0036 43.2333C85.4459 43.2333 86.6822 42.8758 87.6499 42.4505C88.1613 42.2253 88.5955 41.9787 88.9487 41.7571C89.107 41.6535 89.2504 41.557 89.3755 41.4676C89.7656 41.1888 89.9753 40.9851 89.9753 40.9851V40.9779C90.3212 40.6706 90.6192 40.3596 90.8731 40.0665C91.1085 40.3346 91.3919 40.6205 91.7267 40.9065C91.907 41.1066 93.9123 43.2333 97.7793 43.2333C100.866 43.2333 103.148 41.439 103.148 38.8334C103.148 36.0348 100.682 35.0233 98.3018 34.1155M78.7899 29.3225C80.0261 28.068 81.7076 27.4282 83.4664 27.4282C86.1119 27.4282 88.4483 29.0473 88.82 32.6143C88.842 32.8038 88.8568 32.9932 88.8678 33.1934H76.9244C77.1856 31.5564 77.859 30.2625 78.7899 29.3189" fill="#4E748B"></path><path d="M3.83984 25.952H5.38888V28.9794C5.38888 29.7693 5.2417 30.3912 5.2417 30.3912H5.31529C6.23882 27.8106 9.52086 25.541 12.4018 25.541C16.0923 25.541 17.8253 27.1566 18.23 30.2196H18.3036C19.3375 27.8106 22.1413 25.541 25.3166 25.541C30.0778 25.541 31.4759 28.1538 31.4759 32.2498V43.1546H29.9269V32.7645C29.9269 29.5298 29.2241 26.8813 25.3166 26.8813C22.2516 26.8813 19.6319 29.4262 18.8224 32.1104C18.5649 32.9003 18.4545 33.7617 18.4545 34.7589V43.1546H16.9018V32.7645C16.9018 29.805 16.4602 26.8813 12.4018 26.8813C9.11981 26.8813 6.53318 29.5656 5.68691 32.4213C5.46615 33.1433 5.39256 33.9332 5.39256 34.7589V43.1546H3.84352V25.952H3.83984Z" fill="#4E748B"></path><path d="M104.417 46.6682H105.156V48.3123C105.156 48.491 105.142 48.6197 105.142 48.6197H105.156C105.156 48.6197 105.484 48.0085 106.393 48.0085C107.43 48.0085 108.089 48.777 108.089 49.8957C108.089 51.0144 107.349 51.7829 106.33 51.7829C105.465 51.7829 105.116 51.1645 105.116 51.1645H105.101C105.101 51.1645 105.116 51.2789 105.116 51.4362V51.7007H104.413V46.6718L104.417 46.6682ZM106.227 51.1931C106.838 51.1931 107.342 50.7213 107.342 49.9029C107.342 49.0844 106.889 48.6126 106.249 48.6126C105.668 48.6126 105.134 48.9914 105.134 49.91C105.134 50.5498 105.495 51.1931 106.227 51.1931Z" fill="#A4C4B5"></path><path d="M108.527 52.4476C108.527 52.4476 108.74 52.5977 108.979 52.5977C109.277 52.5977 109.528 52.3976 109.675 52.0723L109.866 51.6577L108.247 48.0978H109.082L110.054 50.4568C110.131 50.6426 110.201 50.8893 110.201 50.8893H110.216C110.216 50.8893 110.278 50.6462 110.344 50.4604L111.283 48.0942H112.085L110.274 52.3475C110.039 52.9015 109.564 53.1946 109.02 53.1946C108.586 53.1946 108.269 52.973 108.269 52.973L108.53 52.4476H108.527Z" fill="#A4C4B5"></path><path d="M114.285 46.6396H116.224C117.203 46.6396 117.898 47.1114 117.898 47.9442C117.898 48.416 117.656 48.8199 117.243 49.0272V49.0415C117.839 49.2059 118.123 49.717 118.123 50.2317C118.123 51.2432 117.251 51.7007 116.25 51.7007H114.289V46.6432L114.285 46.6396ZM116.224 48.7055C116.655 48.7055 116.898 48.4196 116.898 48.0586C116.898 47.6976 116.666 47.4331 116.209 47.4331H115.271V48.7091H116.224V48.7055ZM116.327 50.9072C116.831 50.9072 117.115 50.5999 117.115 50.1745C117.115 49.7492 116.824 49.449 116.327 49.449H115.271V50.9072H116.327Z" fill="#A4C4B5"></path><path d="M118.792 48.0656H119.763V50.2173C119.763 50.6569 119.885 50.9571 120.367 50.9571C121.07 50.9571 121.46 50.3817 121.46 49.7312V48.0656H122.431V51.697H121.5V51.2859C121.5 51.143 121.515 51.0286 121.515 51.0286H121.5C121.309 51.4075 120.812 51.7827 120.15 51.7827C119.318 51.7827 118.799 51.3932 118.799 50.3995V48.062L118.792 48.0656Z" fill="#A4C4B5"></path><path d="M123.421 50.6141C123.421 50.6141 123.848 51.0144 124.484 51.0144C124.76 51.0144 124.996 50.9 124.996 50.6856C124.996 50.1423 123.101 50.2138 123.101 49.045C123.101 48.3695 123.752 47.9763 124.591 47.9763C125.43 47.9763 125.897 48.3909 125.897 48.3909L125.536 49.0593C125.536 49.0593 125.176 48.7448 124.58 48.7448C124.326 48.7448 124.083 48.8449 124.083 49.0736C124.083 49.5847 125.978 49.5239 125.978 50.6927C125.978 51.2967 125.411 51.7828 124.488 51.7828C123.516 51.7828 122.976 51.2467 122.976 51.2467L123.421 50.6141Z" fill="#A4C4B5"></path><path d="M126.365 52.2832C126.365 52.2832 126.578 52.4333 126.799 52.4333C127.064 52.4333 127.325 52.2832 127.472 51.9615L127.619 51.6434L125.975 48.0657H127.067L127.884 50.1602C127.961 50.3532 128.031 50.6534 128.031 50.6534H128.046C128.046 50.6534 128.109 50.3675 128.175 50.178L128.94 48.0693H130.004L128.263 52.2511C127.987 52.9123 127.446 53.1982 126.858 53.1982C126.394 53.1982 126.048 52.9623 126.048 52.9623L126.368 52.2868L126.365 52.2832Z" fill="#A4C4B5"></path><path d="M132.178 46.6396H134.117C135.096 46.6396 135.791 47.1114 135.791 47.9442C135.791 48.416 135.548 48.8199 135.136 49.0272V49.0415C135.732 49.2059 136.015 49.717 136.015 50.2317C136.015 51.2432 135.143 51.7007 134.143 51.7007H132.181V46.6432L132.178 46.6396ZM134.117 48.7055C134.547 48.7055 134.79 48.4196 134.79 48.0586C134.79 47.6976 134.558 47.4331 134.102 47.4331H133.164V48.7091H134.117V48.7055ZM134.216 50.9072C134.72 50.9072 135.004 50.5999 135.004 50.1745C135.004 49.7492 134.713 49.449 134.216 49.449H133.16V50.9072H134.216Z" fill="#A4C4B5"></path><path d="M138.44 47.98C139.563 47.98 140.166 48.7413 140.166 49.7027C140.166 49.81 140.144 50.053 140.144 50.053H137.454C137.517 50.6892 138.043 51.0145 138.624 51.0145C139.25 51.0145 139.747 50.6142 139.747 50.6142L140.122 51.2611C140.122 51.2611 139.526 51.7829 138.555 51.7829C137.263 51.7829 136.461 50.9144 136.461 49.8814C136.461 48.7627 137.278 47.98 138.44 47.98ZM139.191 49.4347C139.176 48.9414 138.845 48.6805 138.422 48.6805C137.925 48.6805 137.579 48.9665 137.491 49.4347H139.195H139.191Z" fill="#A4C4B5"></path><path d="M142.481 47.98C143.603 47.98 144.206 48.7413 144.206 49.7027C144.206 49.81 144.184 50.053 144.184 50.053H141.494C141.557 50.6892 142.083 51.0145 142.664 51.0145C143.29 51.0145 143.787 50.6142 143.787 50.6142L144.162 51.2611C144.162 51.2611 143.566 51.7829 142.595 51.7829C141.303 51.7829 140.501 50.9144 140.501 49.8814C140.501 48.7627 141.318 47.98 142.481 47.98ZM143.231 49.4347C143.216 48.9414 142.889 48.6805 142.462 48.6805C141.965 48.6805 141.62 48.9665 141.531 49.4347H143.235H143.231Z" fill="#A4C4B5"></path><path d="M144.934 50.6141C144.934 50.6141 145.361 51.0144 145.998 51.0144C146.274 51.0144 146.509 50.9 146.509 50.6856C146.509 50.1423 144.614 50.2138 144.614 49.045C144.614 48.3695 145.266 47.9763 146.105 47.9763C146.943 47.9763 147.411 48.3909 147.411 48.3909L147.05 49.0593C147.05 49.0593 146.69 48.7448 146.093 48.7448C145.84 48.7448 145.597 48.8449 145.597 49.0736C145.597 49.5847 147.492 49.5239 147.492 50.6927C147.492 51.2967 146.925 51.7828 146.002 51.7828C145.03 51.7828 144.489 51.2467 144.489 51.2467L144.934 50.6141Z" fill="#A4C4B5"></path><path d="M3.95407 9.83969H0.484375V8.64233H8.84401V9.83969H5.37432V18.4749H3.95407V9.83969Z" fill="#CE2231"></path><path d="M10.3633 8.64209C11.1286 8.64209 11.7504 9.24613 11.7504 9.98956V12.2485C11.7504 12.5844 11.721 12.8346 11.721 12.8346H11.7504C12.0669 12.1519 12.983 11.262 14.4327 11.262C16.14 11.262 16.9274 12.1662 16.9274 13.9641V18.4747C16.9274 18.4747 16.9274 18.4783 16.9237 18.4783H15.5402C15.5402 18.4783 15.5365 18.4783 15.5365 18.4747V14.2714C15.5365 13.2814 15.3231 12.5022 14.1604 12.5022C13.0713 12.5022 12.1662 13.2278 11.8682 14.2429C11.7835 14.5216 11.7541 14.8433 11.7541 15.1757V18.4711C11.7541 18.4711 11.7541 18.4747 11.7504 18.4747H10.367C10.367 18.4747 10.3633 18.4747 10.3633 18.4711V8.64566C10.3633 8.64566 10.3633 8.64209 10.367 8.64209H10.3633Z" fill="#CE2231"></path><path d="M22.491 11.2622C24.5404 11.2622 25.6295 12.7383 25.6295 14.5648C25.6295 14.747 25.5854 15.1509 25.5854 15.1509H20.2943C20.3643 16.6986 21.4975 17.4777 22.789 17.4777C24.0805 17.4777 24.9378 16.6557 24.9378 16.6557L25.5118 17.6457C25.5118 17.6457 24.4374 18.6501 22.7007 18.6501C20.4194 18.6501 18.8594 17.0488 18.8594 14.9579C18.8594 12.7169 20.4231 11.2658 22.4873 11.2658L22.491 11.2622ZM24.2129 14.1287C24.1688 12.9171 23.3961 12.3309 22.4652 12.3309C21.4055 12.3309 20.5445 12.9707 20.3422 14.1287H24.2129Z" fill="#CE2231"></path><path d="M35.0925 11.2621C36.9138 11.2621 37.8153 12.2915 37.8153 12.2915L37.1567 13.2386C37.1567 13.2386 36.384 12.4309 35.1477 12.4309C33.687 12.4309 32.6236 13.4888 32.6236 14.9364C32.6236 16.3839 33.6833 17.4705 35.1918 17.4705C36.5385 17.4705 37.4289 16.5233 37.4289 16.5233L37.9882 17.5134C37.9882 17.5134 36.9837 18.6428 35.0925 18.6428C32.8149 18.6428 31.207 17.0702 31.207 14.9507C31.207 12.8312 32.8149 11.2585 35.0925 11.2585V11.2621Z" fill="#CE2231"></path><path d="M39.9238 8.64233C40.6928 8.64233 41.3146 9.24637 41.3146 9.99338V12.2487C41.3146 12.5847 41.2852 12.8349 41.2852 12.8349H41.3146C41.6311 12.1522 42.5473 11.2622 43.9969 11.2622C45.7042 11.2622 46.4916 12.1665 46.4916 13.9643V18.4785H45.1008V14.2717C45.1008 13.2816 44.8874 12.5025 43.7247 12.5025C42.6356 12.5025 41.7304 13.228 41.4324 14.2431C41.3478 14.5219 41.3183 14.8436 41.3183 15.176V18.4785H39.9275V8.64591L39.9238 8.64233Z" fill="#CE2231"></path><path d="M48.9131 8.64233H50.3186V10.022H48.9131V8.64233ZM48.9278 11.4266H50.3186V18.4749H48.9278V11.4266Z" fill="#CE2231"></path><path d="M52.7693 8.64209H54.1601V16.3159C54.1601 17.1665 54.5023 17.3202 54.9328 17.3202C55.0616 17.3202 55.1756 17.3059 55.1756 17.3059V18.5033C55.1756 18.5033 54.9622 18.5319 54.7157 18.5319C53.9283 18.5319 52.7656 18.3246 52.7656 16.5554V8.64566L52.7693 8.64209Z" fill="#CE2231"></path><path d="M59.8219 11.2623C61.4997 11.2623 62.0589 12.3775 62.0589 12.3775H62.0884C62.0884 12.3775 62.0589 12.1702 62.0589 11.9057V8.646H63.4498V18.4786H62.1288V17.8102C62.1288 17.5314 62.1436 17.3384 62.1436 17.3384H62.1141C62.1141 17.3384 61.5254 18.6466 59.7335 18.6466C57.7687 18.6466 56.5361 17.1419 56.5361 14.9544C56.5361 12.767 57.8975 11.2623 59.8182 11.2623H59.8219ZM60.0095 17.4743C61.0839 17.4743 62.1031 16.7344 62.1031 14.9402C62.1031 13.6856 61.4298 12.4346 60.0537 12.4346C58.9057 12.4346 57.9601 13.3532 57.9601 14.9544C57.9601 16.5557 58.8063 17.4743 60.0095 17.4743Z" fill="#CE2231"></path><path d="M65.9893 11.4264H67.3359V12.6524C67.3359 12.9455 67.3065 13.1814 67.3065 13.1814H67.3359C67.6671 12.152 68.5097 11.3442 69.6282 11.3442C69.8159 11.3442 69.9888 11.3728 69.9888 11.3728V12.7096C69.9888 12.7096 69.8011 12.6667 69.5877 12.6667C68.6973 12.6667 67.8805 13.2779 67.553 14.3251C67.4242 14.729 67.3801 15.1615 67.3801 15.594V18.4783H65.9893V11.43V11.4264Z" fill="#CE2231"></path><path d="M74.8054 11.2622C76.8548 11.2622 77.944 12.7383 77.944 14.5648C77.944 14.747 77.8998 15.1509 77.8998 15.1509H72.6088C72.6787 16.6986 73.812 17.4777 75.1034 17.4777C76.3949 17.4777 77.2522 16.6557 77.2522 16.6557L77.8262 17.6457C77.8262 17.6457 76.7518 18.6501 75.0151 18.6501C72.7339 18.6501 71.1738 17.0488 71.1738 14.9579C71.1738 12.7169 72.7376 11.2658 74.8017 11.2658L74.8054 11.2622ZM76.5274 14.1287C76.4832 12.9171 75.7106 12.3309 74.7797 12.3309C73.72 12.3309 72.859 12.9707 72.6566 14.1287H76.5274Z" fill="#CE2231"></path><path d="M79.9971 11.4265H81.3437V12.3594C81.3437 12.6382 81.3143 12.8741 81.3143 12.8741H81.3437C81.6307 12.2629 82.4917 11.2585 84.0665 11.2585C85.7738 11.2585 86.5612 12.1628 86.5612 13.9606V18.4748H85.1703V14.268C85.1703 13.278 84.9569 12.4988 83.7942 12.4988C82.6315 12.4988 81.8 13.2101 81.502 14.2251C81.4173 14.5039 81.3879 14.8256 81.3879 15.1723V18.4748H79.9971V11.4265Z" fill="#CE2231"></path><path d="M89.2578 8.47428C89.9201 8.47428 90.3874 9.10691 90.1777 9.71452L89.6736 11.1871H88.6396L89.2578 8.4707V8.47428Z" fill="#CE2231"></path><path d="M92.5835 16.6519C92.5835 16.6519 93.4003 17.474 94.6624 17.474C95.2658 17.474 95.8655 17.1666 95.8655 16.5983C95.8655 15.3045 92.1383 15.569 92.1383 13.2707C92.1383 11.9912 93.3157 11.2656 94.7617 11.2656C96.3512 11.2656 97.0981 12.0448 97.0981 12.0448L96.5389 13.0634C96.5389 13.0634 95.895 12.438 94.747 12.438C94.1436 12.438 93.5585 12.6882 93.5585 13.3029C93.5585 14.5718 97.2858 14.293 97.2858 16.6055C97.2858 17.7742 96.2519 18.6535 94.6624 18.6535C92.8852 18.6535 91.9102 17.6241 91.9102 17.6241L92.5835 16.6627V16.6519Z" fill="#CE2231"></path><path d="M103.32 8.64233C104.089 8.64233 104.711 9.24637 104.711 9.99338V12.2487C104.711 12.5847 104.682 12.8349 104.682 12.8349H104.711C105.028 12.1522 105.944 11.2622 107.393 11.2622C109.101 11.2622 109.888 12.1665 109.888 13.9643V18.4785H108.497V14.2717C108.497 13.2816 108.284 12.5025 107.121 12.5025C106.032 12.5025 105.127 13.228 104.829 14.2431C104.744 14.5219 104.715 14.8436 104.715 15.176V18.4785H103.324V8.64591L103.32 8.64233Z" fill="#CE2231"></path><path d="M115.709 11.2622C117.872 11.2622 119.624 12.8098 119.624 14.9401C119.624 17.0703 117.876 18.6465 115.709 18.6465C113.542 18.6465 111.794 17.0881 111.794 14.9401C111.794 12.792 113.542 11.2622 115.709 11.2622ZM115.709 17.4742C117.085 17.4742 118.203 16.4162 118.203 14.9401C118.203 13.4639 117.085 12.4345 115.709 12.4345C114.333 12.4345 113.214 13.4782 113.214 14.9401C113.214 16.4019 114.347 17.4742 115.709 17.4742Z" fill="#CE2231"></path><path d="M121.53 11.4265H122.921V15.6333C122.921 16.6091 123.123 17.3883 124.282 17.3883C125.758 17.3883 126.634 16.1194 126.634 14.7291V11.4265H128.024V18.4748H126.678V17.542C126.678 17.2489 126.707 17.0273 126.707 17.0273H126.678C126.376 17.7242 125.43 18.6428 124.01 18.6428C122.377 18.6428 121.53 17.8065 121.53 15.9407V11.4265Z" fill="#CE2231"></path><path d="M130.648 16.6519C130.648 16.6519 131.465 17.474 132.727 17.474C133.33 17.474 133.93 17.1666 133.93 16.5983C133.93 15.3045 130.203 15.569 130.203 13.2707C130.203 11.9912 131.38 11.2656 132.826 11.2656C134.416 11.2656 135.163 12.0448 135.163 12.0448L134.603 13.0634C134.603 13.0634 133.959 12.438 132.811 12.438C132.208 12.438 131.623 12.6882 131.623 13.3029C131.623 14.5718 135.35 14.293 135.35 16.6055C135.35 17.7742 134.316 18.6535 132.727 18.6535C130.95 18.6535 129.975 17.6241 129.975 17.6241L130.648 16.6627V16.6519Z" fill="#CE2231"></path><path d="M140.468 11.2622C142.517 11.2622 143.606 12.7383 143.606 14.5648C143.606 14.747 143.562 15.1509 143.562 15.1509H138.271C138.341 16.6986 139.474 17.4777 140.766 17.4777C142.057 17.4777 142.914 16.6557 142.914 16.6557L143.488 17.6457C143.488 17.6457 142.414 18.6501 140.677 18.6501C138.396 18.6501 136.836 17.0488 136.836 14.9579C136.836 12.7169 138.4 11.2658 140.464 11.2658L140.468 11.2622ZM142.189 14.1287C142.145 12.9171 141.373 12.3309 140.442 12.3309C139.382 12.3309 138.521 12.9707 138.319 14.1287H142.189Z" fill="#CE2231"></path></g><defs><clipPath id="clip0_3221_6884"><rect width="149" height="60" fill="white"></rect></clipPath></defs></svg>