<svg xmlns="http://www.w3.org/2000/svg" width="251" height="91" viewBox="0 0 251 91" fill="none"><path d="M241.217 37.1673C246.348 35.7315 246.22 31.1933 241.217 29.4498C236.545 27.8088 236.775 37.6288 241.217 37.1673ZM241.293 32.1932C241.14 32.5522 240.911 32.8855 240.63 33.1675C240.349 33.4496 240.068 33.7059 239.762 33.9367C239.481 34.1931 239.251 34.4751 239.047 34.8597C238.792 34.7315 238.639 34.6546 238.562 34.5777C238.945 33.9111 239.302 33.2444 239.66 32.6034C240.017 31.9625 240.374 31.2958 240.757 30.6292C241.013 30.7574 241.166 30.8087 241.242 30.8087C241.447 31.3727 241.447 31.8086 241.293 32.1932Z" fill="white"></path><path d="M147.506 65.6777C146.944 66.0623 146.229 66.4726 145.387 66.8572C146.153 66.5238 146.867 66.1136 147.506 65.6777Z" fill="white"></path><path d="M70.6424 39.4238C78.4538 39.4238 84.7847 45.6286 84.7847 53.6282C84.7847 61.6277 78.4538 68.1658 70.6424 68.1658C62.8309 68.1658 56.5 61.8072 56.5 53.6282C56.5 45.4491 62.8309 39.4238 70.6424 39.4238ZM70.6424 65.9095C77.1519 65.9095 82.3851 60.5765 82.3851 53.6282C82.3851 46.6798 77.1519 41.6545 70.6424 41.6545C64.1328 41.6545 58.8996 46.808 58.8996 53.6282C58.8996 60.4483 64.1328 65.9095 70.6424 65.9095Z" fill="white"></path><path d="M87.0547 40.0905H89.3522V44.9107C89.3522 46.167 89.1224 47.167 89.1224 47.167H89.2245C90.1435 44.603 93.9727 39.4238 100.814 39.4238C107.656 39.4238 109.825 43.6544 109.825 50.1155V67.4992H107.528V50.936C107.528 46.167 106.915 41.6545 100.814 41.6545C95.6831 41.6545 91.1391 45.2696 89.7862 50.3719C89.4543 51.5257 89.3522 52.782 89.3522 54.1153V67.4992H87.0547V40.0648V40.0905Z" fill="white"></path><path d="M115.799 42.3208H112.199V40.244H115.799V29.1934L116.488 29.578C117.483 30.1164 118.096 31.142 118.096 32.2701V40.244H123.176C124.325 40.244 125.244 41.167 125.244 42.3208H118.096V57.4225C118.096 64.6785 122.41 65.6016 124.606 65.6016C125.372 65.6016 125.857 65.499 125.857 65.499V67.6271C125.857 67.6271 125.32 67.7296 124.504 67.7296C121.67 67.7296 115.824 66.6784 115.824 57.5764V42.3208H115.799Z" fill="white"></path><path d="M168.385 62.5506C168.589 62.0121 168.691 61.4224 168.691 60.7558C168.691 60.4481 168.64 60.1404 168.589 59.8584C168.717 60.6789 168.64 61.5762 168.359 62.5506" fill="white"></path><path d="M174.641 62.4738C174.641 62.4738 177.704 65.9351 183.116 65.9351C186.46 65.9351 189.396 64.1917 189.396 60.7816C189.396 53.8076 174.36 55.7819 174.36 46.8337C174.36 41.9621 178.47 39.4238 183.09 39.4238C188.655 39.4238 191.183 42.3724 191.183 42.3724L189.804 44.2441C189.804 44.2441 187.558 41.6545 182.912 41.6545C179.797 41.6545 176.734 43.0903 176.734 46.6542C176.734 53.782 191.77 51.6539 191.77 60.756C191.77 65.1403 188.043 68.1658 183.039 68.1658C176.428 68.1658 173.16 64.2173 173.16 64.2173L174.641 62.4482V62.4738Z" fill="white"></path><path d="M224.932 40.0901H227.229V45.295C227.229 46.5513 227.025 47.5512 227.025 47.5512H227.127C228.506 43.3207 231.543 39.8594 235.858 39.8594C236.674 39.8594 237.44 40.0389 237.44 40.0389V42.3464C237.44 42.3464 236.777 42.2439 236.189 42.2439C231.926 42.2439 229.246 45.859 228.046 49.9357C227.433 51.8587 227.229 53.8842 227.229 55.7046V67.5501H224.932V40.1158V40.0901Z" fill="white"></path><path d="M242.544 40.0898H240.246V67.5242H242.544V40.0898Z" fill="white"></path><path d="M207.853 39.4238C215.665 39.4238 221.996 45.6286 221.996 53.6282C221.996 61.6277 215.665 68.1658 207.853 68.1658C200.042 68.1658 193.711 61.8072 193.711 53.6282C193.711 45.4491 200.042 39.4238 207.853 39.4238ZM207.853 65.9095C214.363 65.9095 219.596 60.5765 219.596 53.6282C219.596 46.6798 214.363 41.6545 207.853 41.6545C201.344 41.6545 196.111 46.808 196.111 53.6282C196.111 60.4483 201.344 65.9095 207.853 65.9095Z" fill="white"></path><path d="M163.23 52.8326C159.605 51.3968 156.108 50.1148 156.108 46.6791C156.108 43.5511 158.482 42.064 161.162 41.7563C161.52 41.705 161.903 41.6794 162.285 41.6794C166.932 41.6794 169.178 44.269 169.178 44.269L169.433 43.9357L170.556 42.3973C170.556 42.3973 168.029 39.4231 162.464 39.4231C161.852 39.4231 161.264 39.4744 160.677 39.5513C156.823 40.1154 153.708 42.5768 153.708 46.8329C153.708 51.6275 158.048 53.2941 162.056 54.8838C165.17 56.1145 168.08 57.2939 168.642 59.8835C168.693 60.1655 168.744 60.4476 168.744 60.7809C168.744 61.4475 168.616 62.0372 168.438 62.5756C167.595 64.8063 165.17 65.9344 162.464 65.9344C158.89 65.9344 156.363 64.4217 155.036 63.3961C154.525 63.0115 154.219 62.7038 154.066 62.55C154.014 62.4987 153.989 62.4731 153.989 62.4731C153.402 61.9346 152.942 61.3449 152.559 60.8578C152.228 60.4219 151.972 60.0373 151.794 59.7296H150.594C150.39 60.0886 150.134 60.4732 149.828 60.9091C149.445 61.3962 149.011 61.9346 148.449 62.4731C148.449 62.4731 148.373 62.55 148.245 62.6782C148.245 62.6782 148.194 62.7295 148.169 62.7551C148.118 62.7808 148.092 62.832 148.041 62.8577C147.939 62.9346 147.837 63.0372 147.735 63.1141C147.633 63.191 147.556 63.2679 147.454 63.3192C147.326 63.4217 147.173 63.5243 147.045 63.6269C146.994 63.6525 146.943 63.7038 146.867 63.7294C146.688 63.832 146.509 63.9602 146.331 64.0884C146.152 64.1909 145.948 64.3191 145.744 64.4217C145.59 64.4986 145.437 64.5755 145.284 64.6524H145.258C143.88 65.3447 142.093 65.9088 139.974 65.9088C134.026 65.9088 128.921 61.8834 128.334 54.7812C128.283 54.3197 128.283 53.8838 128.283 53.3967H150.185C150.185 53.3967 150.287 52.5249 150.287 51.9096C150.287 45.2689 146.586 39.3975 139.132 39.3975C135.073 39.3975 131.244 41.141 128.742 44.4485C126.955 46.8073 125.857 49.961 125.857 53.8325C125.857 53.9864 125.857 54.1659 125.857 54.3197C126.087 62.7551 132.393 68.1651 139.949 68.1651C142.297 68.1651 144.314 67.5754 145.897 66.8574C146.739 66.4729 147.428 66.0626 148.015 65.678C148.271 65.4986 148.501 65.3447 148.705 65.1909C149.343 64.7294 149.675 64.3704 149.675 64.3704C150.236 63.832 150.721 63.3192 151.155 62.832C151.538 63.2935 151.998 63.7551 152.559 64.2422C152.84 64.5755 156.108 68.1651 162.413 68.1651C167.442 68.1651 171.144 65.1396 171.144 60.7552C171.144 56.0375 167.136 54.3453 163.256 52.807M131.448 44.7561C133.465 42.6537 136.196 41.5768 139.055 41.5768C143.369 41.5768 147.173 44.2946 147.786 50.3199C147.811 50.6276 147.837 50.9609 147.862 51.2942H128.41C128.844 48.5251 129.942 46.3714 131.448 44.7818" fill="white"></path><path d="M9.40039 39.0651H11.9276V44.1673C11.9276 45.5006 11.6979 46.5518 11.6979 46.5518H11.8255C13.3317 42.2187 18.6669 38.3984 23.364 38.3984C29.3631 38.3984 32.1966 41.1162 32.8604 46.2698H32.988C34.6728 42.2187 39.2423 38.3984 44.3989 38.3984C52.1593 38.3984 54.4313 42.8084 54.4313 49.6799V68.0378H51.904V50.5516C51.904 45.116 50.7553 40.6547 44.3989 40.6547C39.421 40.6547 35.1323 44.9365 33.8304 49.4491C33.422 50.7824 33.2433 52.2182 33.2433 53.9104V68.0378H30.716V50.5516C30.716 45.5775 30.0012 40.6547 23.3896 40.6547C18.0543 40.6547 13.8422 45.1673 12.4637 49.9875C12.1063 51.1926 11.9787 52.5258 11.9787 53.936V68.0634H9.45144V39.0907L9.40039 39.0651Z" fill="white"></path><path d="M173.186 73.96H174.385V76.729C174.385 77.0367 174.385 77.2418 174.385 77.2418C174.385 77.2418 174.921 76.2162 176.402 76.2162C178.087 76.2162 179.159 77.4982 179.159 79.3955C179.159 81.2929 177.959 82.5749 176.3 82.5749C174.896 82.5749 174.334 81.5236 174.334 81.5236H174.309C174.309 81.5236 174.334 81.7288 174.334 81.9852V82.421H173.186V73.96ZM176.121 81.5749C177.117 81.5749 177.934 80.7801 177.934 79.3955C177.934 78.011 177.193 77.2162 176.147 77.2162C175.202 77.2162 174.334 77.8572 174.334 79.3955C174.334 80.4724 174.921 81.5493 176.121 81.5493" fill="white"></path><path d="M179.874 83.6776C179.874 83.6776 180.231 83.934 180.614 83.934C181.099 83.934 181.507 83.6007 181.737 83.0367L182.043 82.3444L179.414 76.3447H180.767L182.35 80.3189C182.477 80.6265 182.579 81.0624 182.579 81.0624H182.605C182.605 81.0624 182.707 80.6522 182.809 80.3445L184.341 76.3704H185.643L182.707 83.5238C182.324 84.4468 181.558 84.9596 180.665 84.9596C179.95 84.9596 179.44 84.575 179.44 84.575L179.874 83.6776Z" fill="white"></path><path d="M189.244 73.9082H192.41C193.992 73.9082 195.141 74.703 195.141 76.1132C195.141 76.908 194.733 77.6003 194.069 77.9336C195.039 78.2413 195.498 79.0874 195.498 79.9591C195.498 81.677 194.094 82.4462 192.461 82.4462H189.27V73.9338L189.244 73.9082ZM192.41 77.3696C193.099 77.3696 193.507 76.8824 193.507 76.267C193.507 75.6517 193.124 75.2158 192.384 75.2158H190.852V77.3696H192.41ZM192.563 81.0873C193.38 81.0873 193.839 80.5745 193.839 79.8566C193.839 79.1387 193.38 78.6259 192.563 78.6259H190.852V81.0873H192.563Z" fill="white"></path><path d="M196.594 76.293H198.176V79.9081C198.176 80.6517 198.381 81.1645 199.147 81.1645C200.295 81.1645 200.933 80.1902 200.933 79.0877V76.293H202.516V82.4208H201.01V81.7286C201.01 81.4978 201.036 81.2927 201.036 81.2927H201.01C200.704 81.9337 199.887 82.549 198.815 82.549C197.462 82.549 196.619 81.8824 196.619 80.2158V76.293H196.594Z" fill="white"></path><path d="M204.125 80.6007C204.125 80.6007 204.814 81.2673 205.861 81.2673C206.295 81.2673 206.703 81.0878 206.703 80.7289C206.703 79.8059 203.614 79.9341 203.614 77.9598C203.614 76.8317 204.661 76.165 206.04 76.165C207.418 76.165 208.158 76.8573 208.158 76.8573L207.571 77.9854C207.571 77.9854 206.984 77.447 206.014 77.447C205.606 77.447 205.197 77.6265 205.197 78.0111C205.197 78.8828 208.286 78.7546 208.286 80.7289C208.286 81.7545 207.367 82.5749 205.861 82.5749C204.355 82.5749 203.41 81.6775 203.41 81.6775L204.125 80.6007Z" fill="white"></path><path d="M208.923 83.3951C208.923 83.3951 209.281 83.6515 209.638 83.6515C210.072 83.6515 210.506 83.3951 210.736 82.8567L210.966 82.3183L208.285 76.293H210.072L211.4 79.8312C211.527 80.1645 211.629 80.6517 211.629 80.6517H211.655C211.655 80.6517 211.757 80.1645 211.859 79.8569L213.11 76.293H214.846L212.012 83.3439C211.578 84.4464 210.685 84.9335 209.715 84.9335C208.949 84.9335 208.387 84.5489 208.387 84.5489L208.923 83.3951Z" fill="white"></path><path d="M218.369 73.9082H221.535C223.117 73.9082 224.266 74.703 224.266 76.1132C224.266 76.908 223.858 77.6003 223.194 77.9336C224.164 78.2413 224.623 79.0874 224.623 79.9591C224.623 81.677 223.219 82.4462 221.586 82.4462H218.395V73.9338L218.369 73.9082ZM221.535 77.3696C222.224 77.3696 222.632 76.8824 222.632 76.267C222.632 75.6517 222.249 75.2158 221.509 75.2158H219.977V77.3696H221.535ZM221.713 81.0873C222.53 81.0873 222.99 80.5745 222.99 79.8566C222.99 79.1387 222.53 78.6259 221.713 78.6259H220.003V81.0873H221.713Z" fill="white"></path><path d="M228.582 76.165C230.42 76.165 231.39 77.447 231.39 79.0623C231.39 79.2418 231.339 79.652 231.339 79.652H226.974C227.076 80.7289 227.944 81.2673 228.863 81.2673C229.884 81.2673 230.701 80.6007 230.701 80.6007L231.313 81.7032C231.313 81.7032 230.343 82.5749 228.761 82.5749C226.667 82.5749 225.34 81.1135 225.34 79.37C225.34 77.4727 226.667 76.165 228.556 76.165M229.807 78.6008C229.782 77.7803 229.246 77.3188 228.556 77.3188C227.739 77.3188 227.178 77.806 227.05 78.6008H229.833H229.807Z" fill="white"></path><path d="M235.168 76.165C237.006 76.165 237.976 77.447 237.976 79.0623C237.976 79.2418 237.95 79.652 237.95 79.652H233.56C233.662 80.7289 234.53 81.2673 235.449 81.2673C236.47 81.2673 237.287 80.6007 237.287 80.6007L237.899 81.7032C237.899 81.7032 236.929 82.5749 235.346 82.5749C233.253 82.5749 231.926 81.1135 231.926 79.37C231.926 77.4727 233.253 76.165 235.142 76.165M236.393 78.6008C236.368 77.7803 235.832 77.3188 235.142 77.3188C234.325 77.3188 233.764 77.806 233.636 78.6008H236.419H236.393Z" fill="white"></path><path d="M239.148 80.6007C239.148 80.6007 239.838 81.2673 240.884 81.2673C241.344 81.2673 241.727 81.0878 241.727 80.7289C241.727 79.8059 238.638 79.9341 238.638 77.9598C238.638 76.8317 239.684 76.165 241.063 76.165C242.441 76.165 243.182 76.8573 243.182 76.8573L242.595 77.9854C242.595 77.9854 242.007 77.447 241.037 77.447C240.629 77.447 240.221 77.6265 240.221 78.0111C240.221 78.8828 243.309 78.7546 243.309 80.7289C243.309 81.7545 242.39 82.5749 240.884 82.5749C239.378 82.5749 238.434 81.6775 238.434 81.6775L239.148 80.6007Z" fill="white"></path><path d="M9.57912 11.9374H3.9375V9.9375H17.5438V11.9374H11.9021V26.475H9.57912V11.9374Z" fill="white"></path><path d="M20.0195 9.9375C21.2704 9.9375 22.266 10.9631 22.266 12.2194V16.0141C22.266 16.5781 22.2149 16.9884 22.2149 16.9884H22.266C22.7765 15.8346 24.2827 14.3475 26.6312 14.3475C29.4137 14.3475 30.6901 15.8859 30.6901 18.9114V26.5007H28.4437V19.4241C28.4437 17.7576 28.0863 16.45 26.1972 16.45C24.4103 16.45 22.9552 17.6806 22.4702 19.3729C22.3426 19.8344 22.2915 20.3728 22.2915 20.9369V26.5007H20.0451V9.96314" fill="white"></path><path d="M39.7779 14.3477C43.122 14.3477 44.8834 16.8347 44.8834 19.9114C44.8834 20.2191 44.8069 20.9114 44.8069 20.9114H36.1785C36.3061 23.501 38.1441 24.8342 40.2374 24.8342C42.3307 24.8342 43.7347 23.4497 43.7347 23.4497L44.6792 25.1163C44.6792 25.1163 42.9178 26.8085 40.1098 26.8085C36.4082 26.8085 33.8555 24.1163 33.8555 20.6037C33.8555 16.8347 36.4082 14.3989 39.7779 14.3989M42.5604 19.1679C42.4838 17.1167 41.233 16.1424 39.7013 16.1424C37.9654 16.1424 36.5869 17.2193 36.2551 19.1679H42.5604Z" fill="white"></path><path d="M60.278 14.3223C63.2392 14.3223 64.7198 16.0658 64.7198 16.0658L63.6477 17.6554C63.6477 17.6554 62.3968 16.2965 60.3801 16.2965C58.006 16.2965 56.2702 18.0656 56.2702 20.527C56.2702 22.9884 58.006 24.7832 60.4567 24.7832C62.6521 24.7832 64.1072 23.1936 64.1072 23.1936L65.0262 24.8601C65.0262 24.8601 63.3924 26.7575 60.3035 26.7575C56.602 26.7575 53.9727 24.1166 53.9727 20.5527C53.9727 16.9888 56.5765 14.3479 60.3035 14.3479" fill="white"></path><path d="M68.1641 9.9375C69.4149 9.9375 70.436 10.9631 70.436 12.2194V16.0141C70.436 16.5781 70.385 16.9884 70.385 16.9884H70.436C70.9466 15.8346 72.4527 14.3475 74.8013 14.3475C77.5838 14.3475 78.8602 15.8859 78.8602 18.9114V26.5007H76.5882V19.4241C76.5882 17.7576 76.2308 16.45 74.3418 16.45C72.5804 16.45 71.0997 17.6806 70.6147 19.3729C70.4871 19.8344 70.436 20.3728 70.436 20.9369V26.5007H68.1641V9.9375Z" fill="white"></path><path d="M82.793 9.91211H85.0905V12.2197H82.793V9.91211ZM82.8185 14.6042H85.0905V26.4753H82.8185V14.6042Z" fill="white"></path><path d="M89.0723 9.9375H91.3442V22.8598C91.3442 24.2957 91.9058 24.5521 92.5951 24.5521C92.7993 24.5521 93.0035 24.5521 93.0035 24.5521V26.5776C93.0035 26.5776 92.6461 26.6289 92.2632 26.6289C90.9868 26.6289 89.0978 26.2699 89.0978 23.2957V9.96314L89.0723 9.9375Z" fill="white"></path><path d="M100.56 14.3475C103.291 14.3475 104.21 16.2192 104.21 16.2192H104.262C104.262 16.2192 104.21 15.8602 104.21 15.4244V9.9375H106.482V26.5007H104.338V25.3725C104.338 24.911 104.338 24.5777 104.338 24.5777H104.287C104.287 24.5777 103.343 26.7827 100.407 26.7827C97.2159 26.7827 95.1992 24.2444 95.1992 20.5779C95.1992 16.9115 97.4201 14.3731 100.535 14.3731M100.866 24.7828C102.628 24.7828 104.287 23.5521 104.287 20.5266C104.287 18.4242 103.189 16.2961 100.943 16.2961C99.0794 16.2961 97.5478 17.8345 97.5478 20.5523C97.5478 23.2701 98.9263 24.7828 100.892 24.7828" fill="white"></path><path d="M110.592 14.6048H112.787V16.6816C112.787 17.1687 112.736 17.579 112.736 17.579H112.787C113.323 15.8355 114.702 14.4766 116.514 14.4766C116.821 14.4766 117.101 14.5278 117.101 14.5278V16.7841C117.101 16.7841 116.795 16.7072 116.438 16.7072C114.983 16.7072 113.655 17.7328 113.119 19.5019C112.915 20.1942 112.838 20.9121 112.838 21.63V26.4759H110.566V14.6048H110.592Z" fill="white"></path><path d="M124.965 14.3477C128.31 14.3477 130.071 16.8347 130.071 19.9114C130.071 20.2191 129.994 20.9114 129.994 20.9114H121.366C121.494 23.501 123.332 24.8342 125.425 24.8342C127.518 24.8342 128.922 23.4497 128.922 23.4497L129.867 25.1163C129.867 25.1163 128.105 26.8085 125.297 26.8085C121.596 26.8085 119.043 24.1163 119.043 20.6037C119.043 16.8347 121.596 14.3989 124.94 14.3989M127.748 19.1679C127.671 17.1167 126.42 16.1424 124.889 16.1424C123.153 16.1424 121.774 17.2193 121.443 19.1679H127.748Z" fill="white"></path><path d="M133.414 14.6043H135.609V16.1683C135.609 16.6298 135.558 17.0401 135.558 17.0401H135.609C136.069 16.0145 137.473 14.3223 140.051 14.3223C142.834 14.3223 144.11 15.835 144.11 18.8605V26.4498H141.838V19.3733C141.838 17.7067 141.481 16.3991 139.592 16.3991C137.703 16.3991 136.35 17.6041 135.865 19.2963C135.737 19.7579 135.686 20.2963 135.686 20.886V26.4498H133.414V14.5787V14.6043Z" fill="white"></path><path d="M148.499 9.65625C149.572 9.65625 150.337 10.7075 150.006 11.7587L149.189 14.2457H147.504L148.499 9.68189V9.65625Z" fill="white"></path><path d="M153.912 23.3989C153.912 23.3989 155.24 24.7835 157.307 24.7835C158.303 24.7835 159.273 24.2707 159.273 23.2964C159.273 21.117 153.197 21.5529 153.197 17.6813C153.197 15.5276 155.112 14.2969 157.46 14.2969C160.064 14.2969 161.264 15.6045 161.264 15.6045L160.345 17.3223C160.345 17.3223 159.299 16.2711 157.435 16.2711C156.465 16.2711 155.495 16.6814 155.495 17.7326C155.495 19.8607 161.57 19.3992 161.57 23.2964C161.57 25.2706 159.886 26.7577 157.307 26.7577C154.423 26.7577 152.814 25.0142 152.814 25.0142L153.912 23.3989Z" fill="white"></path><path d="M171.4 9.9375C172.651 9.9375 173.672 10.9631 173.672 12.2194V16.0141C173.672 16.5781 173.621 16.9884 173.621 16.9884H173.672C174.183 15.8346 175.689 14.3475 178.038 14.3475C180.82 14.3475 182.096 15.8859 182.096 18.9114V26.5007H179.825V19.4241C179.825 17.7576 179.467 16.45 177.578 16.45C175.817 16.45 174.336 17.6806 173.851 19.3729C173.723 19.8344 173.672 20.3728 173.672 20.9369V26.5007H171.4V9.9375Z" fill="white"></path><path d="M191.566 14.3477C195.088 14.3477 197.947 16.9373 197.947 20.5268C197.947 24.1163 195.088 26.7572 191.566 26.7572C188.043 26.7572 185.184 24.142 185.184 20.5268C185.184 16.9116 188.043 14.3477 191.566 14.3477ZM191.566 24.783C193.812 24.783 195.624 23.0138 195.624 20.5268C195.624 18.0398 193.812 16.2963 191.566 16.2963C189.319 16.2963 187.507 18.0654 187.507 20.5268C187.507 22.9882 189.345 24.783 191.566 24.783Z" fill="white"></path><path d="M201.037 14.6047H203.309V21.6813C203.309 23.3222 203.641 24.6298 205.53 24.6298C207.93 24.6298 209.359 22.5017 209.359 20.1429V14.5791H211.631V26.4502H209.436V24.8862C209.436 24.3991 209.487 24.0145 209.487 24.0145H209.436C208.951 25.1939 207.393 26.7323 205.096 26.7323C202.441 26.7323 201.063 25.3221 201.063 22.1684V14.5791L201.037 14.6047Z" fill="white"></path><path d="M215.895 23.3989C215.895 23.3989 217.222 24.7835 219.29 24.7835C220.285 24.7835 221.255 24.2707 221.255 23.2964C221.255 21.117 215.18 21.5529 215.18 17.6813C215.18 15.5276 217.094 14.2969 219.443 14.2969C222.047 14.2969 223.247 15.6045 223.247 15.6045L222.328 17.3223C222.328 17.3223 221.281 16.2711 219.417 16.2711C218.447 16.2711 217.477 16.6814 217.477 17.7326C217.477 19.8607 223.553 19.3992 223.553 23.2964C223.553 25.2706 221.868 26.7577 219.29 26.7577C216.405 26.7577 214.797 25.0142 214.797 25.0142L215.895 23.3989Z" fill="white"></path><path d="M231.874 14.3477C235.218 14.3477 236.979 16.8347 236.979 19.9114C236.979 20.2191 236.903 20.9114 236.903 20.9114H228.274C228.402 23.501 230.24 24.8342 232.333 24.8342C234.426 24.8342 235.83 23.4497 235.83 23.4497L236.775 25.1163C236.775 25.1163 235.014 26.8085 232.205 26.8085C228.478 26.8085 225.951 24.1163 225.951 20.6037C225.951 16.8347 228.504 14.3989 231.848 14.3989M234.682 19.1679C234.605 17.1167 233.354 16.1424 231.823 16.1424C230.087 16.1424 228.708 17.2193 228.376 19.1679H234.682Z" fill="white"></path></svg>